<?xml version="1.0" encoding="UTF-8" standalone="no"?>
<!DOCTYPE svg PUBLIC "-//W3C//DTD SVG 1.1//EN" "http://www.w3.org/Graphics/SVG/1.1/DTD/svg11.dtd">
<svg width="100%" height="100%" viewBox="0 0 150 40" version="1.1" xmlns="http://www.w3.org/2000/svg" xmlns:xlink="http://www.w3.org/1999/xlink" xml:space="preserve" xmlns:serif="http://www.serif.com/" style="fill-rule:evenodd;clip-rule:evenodd;stroke-linejoin:round;stroke-miterlimit:2;">
    <g transform="matrix(0.223839,-3.08149e-33,3.08149e-33,-0.223839,0,39.6482)">
        <path d="M70.035,1.445C66.754,3.363 66.793,5.785 70.43,27.691C70.602,28.723 70.996,31.254 71.305,33.317C71.617,35.379 71.949,37.469 72.051,37.961C72.148,38.449 72.422,40.137 72.656,41.711C76.938,70.223 79.73,76.441 95.145,91.731C106.328,102.82 106.266,101.207 95.738,106.965C84.973,112.859 80.367,114.113 67.5,114.66C58.031,115.067 55.629,115.418 52.316,116.883C46.09,119.641 45.059,121.93 44.734,133.762C44.344,147.984 45.664,151.055 52.617,152.086C55.984,152.582 56.238,152.774 56.109,154.652C56.031,155.809 55.086,157.445 53.914,158.449C51.918,160.168 51.336,160.231 33.469,160.742C7.051,161.496 0,162.621 0,166.078C0,168.832 5.547,169.57 29.359,169.984L51.215,170.367L52.184,172.18C53.543,174.715 57.688,177.094 60.75,177.094C63.852,177.094 67.961,174.707 69.359,172.094L70.379,170.191L84.688,170.184C100.371,170.176 115.836,169.117 119.062,167.832C121.41,166.895 121.812,164.609 119.812,163.551C116.98,162.047 106.426,161.082 88.273,160.664L69.301,160.223L67.125,158.191C65.879,157.027 65.004,155.473 65.074,154.551C65.176,153.191 65.664,152.941 68.223,152.934C69.887,152.926 72.516,152.715 74.062,152.461L76.875,151.996L76.875,144.645C76.875,138.285 77.051,137.242 78.188,136.922C79.633,136.516 82.684,135.926 86.438,135.328C92.266,134.402 93.992,134.055 98.109,132.996C100.508,132.379 103.926,131.168 105.707,130.301L108.945,128.731L111.473,130.621C112.863,131.664 115.066,133.055 116.371,133.715C120.465,135.781 132.215,136.664 150.32,136.266C166.613,135.91 167.406,135.82 171.375,133.941C173.645,132.867 176.344,131.305 177.375,130.469L179.25,128.949L184.008,130.879C188.465,132.688 205.609,136.441 209.406,136.441C211.09,136.441 211.125,136.609 211.125,144.281L211.125,152.125L213.797,152.625C215.266,152.902 217.797,152.949 219.422,152.731C222.219,152.356 222.375,152.441 222.375,154.324C222.375,155.672 221.586,156.945 219.934,158.266L217.492,160.211L198.371,160.688C178.469,161.18 169.207,162.289 167.07,164.426C163.648,167.848 171.77,169.352 196.875,169.941L216.75,170.41L219.238,173.293C222.023,176.52 225.266,177.703 229.02,176.871C231.645,176.289 235.875,172.824 235.875,171.258C235.875,170.582 241.422,170.262 257.812,169.981C279.746,169.606 285.176,169 287.625,166.672C288.621,165.723 288.59,165.481 287.355,164.567C284.195,162.219 266.957,160.461 246.453,160.387C236.184,160.352 235.379,160.242 233.551,158.652C232.477,157.719 231.43,156.059 231.219,154.965C230.875,153.16 231.094,152.926 233.543,152.52C238.328,151.723 239.875,151.016 241.453,148.902C242.863,147.016 243,145.781 243,134.945C243,121.242 242.629,120.258 236.25,116.977C233.059,115.336 231.34,115.07 220.953,114.613C211.746,114.211 208.242,113.746 204.523,112.441C199.555,110.691 186.762,104.059 184.922,102.277C183.992,101.375 185.18,99.918 193.594,91.649C208.426,77.07 211.047,71.715 214.812,48.317C215.676,42.953 216.902,35.359 217.535,31.441C222.039,3.691 222.055,3.277 218.711,1.488C214.855,-0.574 210.281,1.25 208.961,5.383C208,8.395 204.219,35.629 204.199,39.691C204.191,41.559 201.395,55.531 200.156,59.899C198.039,67.363 194.242,73.707 187.828,80.481C180.789,87.914 178.832,88.629 177.273,84.317L176.324,81.691L111.652,81.691L110.402,84.317C109.711,85.762 108.676,86.941 108.098,86.941C107.52,86.941 104.082,83.828 100.461,80.024C88.992,67.973 87.273,61.918 81.012,11.567C80.293,5.774 79.801,4.203 78.145,2.379C76.516,0.582 72.336,0.102 70.035,1.445ZM383.863,4.957C375.469,7.106 370.188,14.215 369.543,24.227C369.098,31.172 370.746,36.895 374.426,41.195C378.18,45.582 382.141,47.375 388.969,47.781C402.883,48.613 411.254,41.141 411.984,27.238C412.27,21.805 412.078,20.652 410.215,16.504C405.742,6.535 395.402,2.004 383.863,4.957ZM397.219,14.629C403.273,20.016 402.895,33.551 396.562,38.059C392.551,40.918 386.352,40.242 383.301,36.613C377.672,29.93 379.398,16.352 386.25,13.359C388.77,12.262 395.422,13.031 397.219,14.629ZM474.707,5.981C470.078,7.762 466.406,11.203 464.344,15.691C462.055,20.668 462.074,32.813 464.371,37.067C469.531,46.613 481.043,50.617 490.5,46.16C497.328,42.938 500.582,37.422 500.609,29.004L500.625,23.941L472.711,23.941L473.223,21.879C474.016,18.652 476.16,15.406 478.168,14.391C480.953,12.981 487.047,13.262 492.309,15.039L497.031,16.633L501.688,11.977L499.152,9.715C493.441,4.617 482.562,2.957 474.707,5.981ZM491.625,31.856C491.625,33.07 489.145,36.762 487.414,38.125C483.23,41.418 476.668,39.602 473.984,34.414C473.375,33.234 472.875,32.082 472.875,31.856C472.875,31.629 477.094,31.441 482.25,31.441C487.406,31.441 491.625,31.629 491.625,31.856ZM284.625,5.191L284.625,63.691L296.062,63.652C313.805,63.59 321.957,61.52 328.152,55.496C338.293,45.637 338.801,25.231 329.156,14.922C322.32,7.613 314.051,5.191 295.906,5.191L284.625,5.191ZM315.145,17.805C323.746,22.246 326.977,34.277 322.145,43.887C318.711,50.715 313.617,53.164 302.812,53.18L295.875,53.191L295.875,15.317L303.938,15.75C310.129,16.082 312.73,16.559 315.145,17.805ZM343.113,17.754C343.109,24.664 342.895,34.082 342.637,38.688L342.172,47.055L347.117,47.313L352.059,47.567L352.539,44.731L353.016,41.895L355.926,44.524C357.527,45.969 359.711,47.371 360.777,47.641C362.84,48.16 369.152,47.664 369.891,46.926C370.133,46.688 369.84,44.727 369.242,42.57L368.152,38.656L364.004,38.848C360.461,39.012 359.516,38.754 357.512,37.067C354.227,34.305 353.633,31.289 353.629,17.379L353.625,5.191L343.125,5.191L343.113,17.754ZM418.125,5.191L418.125,47.191L427.707,47.191L428.668,42.074L432.43,44.606C439.078,49.078 446.09,49.027 451.141,44.465C455.449,40.57 456.207,37.27 456.75,20.004L457.215,5.191L445.961,5.191L445.5,35.324L443.395,37.133C440.875,39.297 436.848,39.52 432.391,37.734L429.375,36.527L429.375,5.191L418.125,5.191ZM133.332,8.094C116.508,13.996 106.883,32.981 112.07,50.031C116.797,65.574 132.352,75.672 148.129,73.441C154.512,72.539 157.648,71.375 162.43,68.141C170.148,62.926 175.027,55.367 177.117,45.406C179.324,34.867 175.5,23.633 166.793,15.082C164.98,13.305 161.305,10.785 158.625,9.484C154.188,7.332 153.008,7.102 145.5,6.918C139.035,6.762 136.402,7.016 133.332,8.094ZM151.957,19.984C159.699,22.484 165.375,30.809 165.375,39.652C165.371,55.695 148.945,66.422 134.902,59.551C121.203,52.852 118.637,35.531 129.703,24.488C135.25,18.957 143.562,17.274 151.957,19.984ZM137.477,27.723C130.848,31.227 128.172,39.711 131.527,46.586C135.695,55.129 147.566,56.984 153.852,50.074C157.645,45.906 158.957,39.649 157.078,34.68C156.102,32.094 152.945,28.672 150.227,27.25C147.309,25.727 140.801,25.969 137.477,27.723ZM594,62.109C586.172,64.949 585.984,65.067 586.539,66.817C588.145,71.871 589.219,73.567 590.477,73.02C595.539,70.813 599.895,69.738 603.859,69.715C607.891,69.695 608.746,69.953 610.719,71.797C613.059,73.981 614.613,78.113 614.621,82.152L614.625,84.488L611.121,82.715C601.676,77.934 588.18,83.188 585.375,92.734C580.711,108.602 588.711,121.441 603.254,121.441C605.387,121.441 607.289,120.723 610.004,118.899C614.039,116.184 614.625,116.188 614.625,118.941C614.625,120.606 614.879,120.691 619.77,120.691L624.914,120.691L624.586,97.629C624.25,74.289 623.887,71.008 621.219,67.395C616.93,61.586 602.938,58.871 594,62.109ZM611.352,91.512C614.141,93.227 614.336,93.824 614.555,101.34C614.754,108.234 614.023,109.856 609.879,111.738C606.09,113.461 603.262,113.559 600.398,112.078C592.125,107.801 592.859,92.559 601.457,89.969C604.426,89.078 608.395,89.695 611.352,91.512ZM336.75,78.293C326.535,81.348 322.125,87.828 322.125,99.777C322.125,107.524 323.004,110.168 327.062,114.664C331.535,119.613 334.926,121.055 342,121.024C348.742,120.988 350.875,120.152 355.309,115.793C358.559,112.594 360.375,107.445 360.375,101.43L360.375,97.441L346.125,97.441C335.953,97.441 331.875,97.195 331.875,96.586C331.875,96.117 332.605,94.274 333.496,92.488C334.707,90.063 335.969,88.844 338.5,87.652C342.469,85.789 345.66,86.039 352.266,88.742L356.531,90.484L361.5,85.313L358.766,82.93C353.586,78.41 343.469,76.281 336.75,78.293ZM350.625,105.356C350.625,109.102 346.125,113.191 342.008,113.191C339.109,113.191 334.543,110.582 333.523,108.344C331.676,104.289 331.863,104.191 341.625,104.191C349.254,104.191 350.625,104.371 350.625,105.356ZM378.375,77.91C374.391,78.676 372.52,79.969 370.957,83.031C369.207,86.465 369.375,84.758 369.375,98.941L369.375,110.941L361.875,110.941L361.875,118.817L365.625,118.559L369.375,118.297L369.387,123.809C369.402,132.594 369.465,132.691 375.09,132.691L379.875,132.691L379.875,118.324L385.504,118.57L391.129,118.817L391.129,114.879L391.125,110.941L379.875,110.941L379.875,99.734C379.875,89.281 379.98,88.453 381.418,87.449C382.59,86.625 383.688,86.535 386.035,87.063C389.672,87.879 390.062,87.586 391.012,83.336C391.695,80.289 391.629,80.063 389.898,79.402C388.074,78.711 386.496,78.332 382.875,77.719C381.844,77.547 379.82,77.629 378.375,77.91ZM549.215,78.067C547.684,78.484 544.922,80.156 543.074,81.785C538.422,85.875 536.359,91.324 536.422,99.317C536.527,112.317 542.84,120.262 553.82,121.227C557.445,121.543 558.578,121.285 562.363,119.281L566.727,116.969L566.559,127.645L566.387,138.317L571.34,138.539L576.293,138.758L576.711,136.289C576.941,134.93 577.211,121.414 577.312,106.254L577.5,78.691L572.367,78.691C567.867,78.691 567.188,78.875 566.844,80.191C566.625,81.016 566.363,81.691 566.258,81.691C566.152,81.691 564.586,80.879 562.781,79.891C558.926,77.77 553.137,76.992 549.215,78.067ZM563.812,87.93L566.625,89.469L566.625,108.617L563.996,110.621C560.469,113.313 555.809,113.781 552.602,111.77C549.09,109.563 547.746,107.016 547.328,101.754C546.281,88.555 553.656,82.367 563.812,87.93ZM644.852,78.649C636.41,81.481 631.934,87.785 631.293,97.746C630.652,107.762 634.414,115.422 641.949,119.422C646.32,121.742 655.711,121.727 660.113,119.387C666.117,116.203 670.125,108.676 670.125,100.582L670.125,97.441L655.875,97.441C639.914,97.441 640.352,97.625 643.168,92.106C644.262,89.961 645.629,88.664 647.855,87.652C652,85.77 653.445,85.828 660.156,88.145L665.816,90.098L668.047,87.867C671.012,84.899 670.137,83.277 663.938,80.238C657.953,77.313 650.652,76.703 644.852,78.649ZM660.375,104.965C660.375,105.391 659.883,106.922 659.277,108.367C657.383,112.902 650.961,114.535 646.266,111.672C644.25,110.441 641.625,106.438 641.625,104.59C641.625,104.371 645.844,104.191 651,104.191C656.945,104.191 660.375,104.477 660.375,104.965ZM457.5,79.125C456.266,79.77 454.719,80.777 454.066,81.367C452.383,82.895 451.875,82.707 451.875,80.567C451.875,78.758 451.699,78.691 447,78.691L442.125,78.691L441.969,104.941C441.883,119.379 441.797,132.797 441.781,134.754L441.75,138.317L446.723,138.535C451.547,138.75 451.711,138.695 452.191,136.777C452.465,135.691 452.707,130.781 452.727,125.871C452.746,120.961 452.938,116.941 453.145,116.941C453.348,116.941 454.438,117.598 455.562,118.399C458.297,120.344 463.859,121.676 467.387,121.231C477.219,119.988 482.715,112.684 483.07,100.391C483.367,90.137 479.738,82.945 472.496,79.441C468.641,77.574 460.789,77.41 457.5,79.125ZM467.484,87.711C470.66,89.649 472.34,93.617 472.398,99.317C472.504,110.008 465.551,115.977 457.648,111.977C452.676,109.457 452.625,109.328 452.625,99.242L452.625,90.027L455.812,88.117C459.73,85.77 464.051,85.617 467.484,87.711ZM396.176,107.004C396.008,122.578 395.613,136.047 395.301,136.941C394.758,138.492 394.969,138.574 400.02,138.817C406.391,139.117 406,139.859 406.633,126.227L407.09,116.387L410.582,118.559C415.723,121.754 420.609,122.133 425.836,119.738C429.027,118.277 430.402,117.102 431.848,114.582C433.629,111.488 433.746,110.547 434.129,96.691C434.352,88.649 434.637,81.391 434.766,80.567C434.977,79.219 434.516,79.043 430.203,78.84C427.562,78.715 425.109,78.906 424.754,79.262C423.883,80.133 423.465,86.02 423.414,98.063L423.375,108.059L421.184,110.25C419.363,112.07 418.375,112.441 415.371,112.438C413.086,112.438 410.852,111.887 409.312,110.949L406.875,109.465L406.875,78.691L396.484,78.691L396.176,107.004ZM489.375,78.691L489.375,120.762L494.055,120.539C498.062,120.348 498.77,120.102 498.973,118.817C499.516,115.418 499.832,115.285 502.066,117.52C505.145,120.594 508.227,121.711 512.051,121.133C517.02,120.379 517.223,120.094 515.934,115.691C514.82,111.895 514.793,111.867 512.348,112.418C508.578,113.27 503.75,111.18 502.023,107.953C500.809,105.688 500.625,103.578 500.625,92.016L500.625,78.691L489.375,78.691ZM519.375,78.691L519.375,120.691L529.875,120.691L529.875,78.691L519.375,78.691ZM284.625,79.441L284.625,136.441L294.891,136.441L295.379,125.754C295.648,119.875 295.871,109.246 295.871,102.129L295.875,89.191L321.375,89.191L321.375,79.441L284.625,79.441ZM521.863,128.93C518.387,130.363 517.57,135.191 520.359,137.813C525.387,142.531 533.543,136.051 528.992,130.949C527.004,128.723 524.25,127.945 521.863,128.93Z" style="fill:white;fill-rule:nonzero;"/>
    </g>
</svg>
