<?xml version="1.0" encoding="UTF-8" standalone="no"?>
<!DOCTYPE svg PUBLIC "-//W3C//DTD SVG 1.1//EN" "http://www.w3.org/Graphics/SVG/1.1/DTD/svg11.dtd">
<svg width="100%" height="100%" viewBox="0 0 128 128" version="1.1" xmlns="http://www.w3.org/2000/svg" xmlns:xlink="http://www.w3.org/1999/xlink" xml:space="preserve" xmlns:serif="http://www.serif.com/" style="fill-rule:evenodd;clip-rule:evenodd;stroke-linejoin:round;stroke-miterlimit:2;">
    <g transform="matrix(0.443743,-6.10881e-33,6.10881e-33,-0.443743,0.0276813,103.441)">
        <path d="M70.035,1.445C66.754,3.363 66.793,5.785 70.43,27.691C70.602,28.723 70.996,31.254 71.305,33.317C71.617,35.379 71.949,37.469 72.051,37.961C72.148,38.449 72.422,40.137 72.656,41.711C76.938,70.223 79.73,76.441 95.145,91.731C106.328,102.82 106.266,101.207 95.738,106.965C84.973,112.859 80.367,114.113 67.5,114.66C58.031,115.067 55.629,115.418 52.316,116.883C46.09,119.641 45.059,121.93 44.734,133.762C44.344,147.984 45.664,151.055 52.617,152.086C55.984,152.582 56.238,152.774 56.109,154.652C56.031,155.809 55.086,157.445 53.914,158.449C51.918,160.168 51.336,160.231 33.469,160.742C7.051,161.496 0,162.621 0,166.078C0,168.832 5.547,169.57 29.359,169.984L51.215,170.367L52.184,172.18C53.543,174.715 57.688,177.094 60.75,177.094C63.852,177.094 67.961,174.707 69.359,172.094L70.379,170.191L84.688,170.184C100.371,170.176 115.836,169.117 119.062,167.832C121.41,166.895 121.812,164.609 119.812,163.551C116.98,162.047 106.426,161.082 88.273,160.664L69.301,160.223L67.125,158.191C65.879,157.027 65.004,155.473 65.074,154.551C65.176,153.191 65.664,152.941 68.223,152.934C69.887,152.926 72.516,152.715 74.062,152.461L76.875,151.996L76.875,144.645C76.875,138.285 77.051,137.242 78.188,136.922C79.633,136.516 82.684,135.926 86.438,135.328C92.266,134.402 93.992,134.055 98.109,132.996C100.508,132.379 103.926,131.168 105.707,130.301L108.945,128.731L111.473,130.621C112.863,131.664 115.066,133.055 116.371,133.715C120.465,135.781 132.215,136.664 150.32,136.266C166.613,135.91 167.406,135.82 171.375,133.941C173.645,132.867 176.344,131.305 177.375,130.469L179.25,128.949L184.008,130.879C188.465,132.688 205.609,136.441 209.406,136.441C211.09,136.441 211.125,136.609 211.125,144.281L211.125,152.125L213.797,152.625C215.266,152.902 217.797,152.949 219.422,152.731C222.219,152.356 222.375,152.441 222.375,154.324C222.375,155.672 221.586,156.945 219.934,158.266L217.492,160.211L198.371,160.688C178.469,161.18 169.207,162.289 167.07,164.426C163.648,167.848 171.77,169.352 196.875,169.941L216.75,170.41L219.238,173.293C222.023,176.52 225.266,177.703 229.02,176.871C231.645,176.289 235.875,172.824 235.875,171.258C235.875,170.582 241.422,170.262 257.812,169.981C279.746,169.606 285.176,169 287.625,166.672C288.621,165.723 288.59,165.481 287.355,164.567C284.195,162.219 266.957,160.461 246.453,160.387C236.184,160.352 235.379,160.242 233.551,158.652C232.477,157.719 231.43,156.059 231.219,154.965C230.875,153.16 231.094,152.926 233.543,152.52C238.328,151.723 239.875,151.016 241.453,148.902C242.863,147.016 243,145.781 243,134.945C243,121.242 242.629,120.258 236.25,116.977C233.059,115.336 231.34,115.07 220.953,114.613C211.746,114.211 208.242,113.746 204.523,112.441C199.555,110.691 186.762,104.059 184.922,102.277C183.992,101.375 185.18,99.918 193.594,91.649C208.426,77.07 211.047,71.715 214.812,48.317C215.676,42.953 216.902,35.359 217.535,31.441C222.039,3.691 222.055,3.277 218.711,1.488C214.855,-0.574 210.281,1.25 208.961,5.383C208,8.395 204.219,35.629 204.199,39.691C204.191,41.559 201.395,55.531 200.156,59.899C198.039,67.363 194.242,73.707 187.828,80.481C180.789,87.914 178.832,88.629 177.273,84.317L176.324,81.691L111.652,81.691L110.402,84.317C109.711,85.762 108.676,86.941 108.098,86.941C107.52,86.941 104.082,83.828 100.461,80.024C88.992,67.973 87.273,61.918 81.012,11.567C80.293,5.774 79.801,4.203 78.145,2.379C76.516,0.582 72.336,0.102 70.035,1.445ZM133.332,8.094C116.508,13.996 106.883,32.981 112.07,50.031C116.797,65.574 132.352,75.672 148.129,73.441C154.512,72.539 157.648,71.375 162.43,68.141C170.148,62.926 175.027,55.367 177.117,45.406C179.324,34.867 175.5,23.633 166.793,15.082C164.98,13.305 161.305,10.785 158.625,9.484C154.188,7.332 153.008,7.102 145.5,6.918C139.035,6.762 136.402,7.016 133.332,8.094ZM151.957,19.984C159.699,22.484 165.375,30.809 165.375,39.652C165.371,55.695 148.945,66.422 134.902,59.551C121.203,52.852 118.637,35.531 129.703,24.488C135.25,18.957 143.562,17.274 151.957,19.984ZM137.477,27.723C130.848,31.227 128.172,39.711 131.527,46.586C135.695,55.129 147.566,56.984 153.852,50.074C157.645,45.906 158.957,39.649 157.078,34.68C156.102,32.094 152.945,28.672 150.227,27.25C147.309,25.727 140.801,25.969 137.477,27.723Z" style="fill-rule:nonzero;"/>
    </g>
</svg>
